<svg width="70" height="76" viewBox="0 0 70 76" fill="none" xmlns="http://www.w3.org/2000/svg">
<path d="M0.00621297 0.513216C0.00621297 0.803961 -0.00776621 1.0022 0.00621297 1.20043C0.537422 6.69817 1.06863 12.1959 1.58586 17.7069C2.31278 25.5041 3.02572 33.3014 3.75263 41.0855C4.57741 49.8343 5.41616 58.5699 6.21297 67.3187C6.26889 67.953 6.50653 68.2305 7.1356 68.3891C16.0823 70.7151 25.001 73.0543 33.9477 75.367C34.5488 75.5256 35.2757 75.552 35.8768 75.3934C44.8514 73.0675 53.8121 70.7019 62.7867 68.3627C63.4717 68.1777 63.7094 67.8869 63.7653 67.2261C64.0449 63.9222 64.3804 60.6051 64.6879 57.3011C65.2051 51.8298 65.7084 46.3585 66.2256 40.8872C66.8267 34.4644 67.4418 28.0548 68.0429 21.6319C68.4902 16.8478 68.9655 12.077 69.4129 7.29288C69.6226 5.04621 69.8043 2.79953 70 0.5H0.00621297V0.513216ZM56.4961 19.5967C56.0348 24.4337 55.5735 29.2838 55.1122 34.1208C54.581 39.6846 54.0497 45.2484 53.5185 50.799C53.3648 52.3981 53.1411 53.9972 53.0992 55.6095C53.0712 56.4686 52.6798 56.6932 51.9249 56.8915C46.5289 58.2659 41.147 59.68 35.765 61.0808C35.5273 61.1469 35.3037 61.2262 35.066 61.2923C34.9821 61.2526 34.8983 61.2262 34.8004 61.1866C29.041 59.7064 23.2816 58.213 17.5221 56.7064C17.2845 56.6404 16.9769 56.2835 16.949 56.0324C16.5436 51.9091 16.1801 47.7858 15.7887 43.5832H24.5816C24.7354 45.2352 24.9031 46.9136 25.0429 48.6052C25.1687 50.1647 25.1548 50.1647 26.7065 50.5611C29.4883 51.2616 32.2842 51.9488 35.066 52.636L35.0381 52.5699C38.0855 51.8034 41.133 51.0501 44.1804 50.2307C44.46 50.1514 44.7815 49.7285 44.8235 49.4378C45.0052 48.1691 45.1031 46.8872 45.2149 45.6185C45.3966 43.57 45.5784 41.5216 45.7741 39.3806H35.0381L35.066 39.3278C34.9961 39.3278 34.9122 39.3278 34.8423 39.3278H15.3833C15.1177 36.5921 14.8661 33.8829 14.6005 31.0944H34.8563C34.9262 31.0944 35.0101 31.0944 35.08 31.0944L35.052 31.0415H46.5569C46.8225 28.2001 47.0881 25.4248 47.3537 22.5967H35.0381L35.066 22.5438C34.9961 22.5438 34.9122 22.5438 34.8423 22.5438C27.9506 22.557 21.0589 22.557 14.1671 22.5702C14.0693 22.5702 13.9714 22.5306 13.7897 22.4777C13.5381 19.7817 13.2725 17.0857 13.0208 14.3104H34.8423C34.9122 14.3104 34.9961 14.3104 35.066 14.3104L35.0381 14.2576H56.9574C56.8036 16.1078 56.6499 17.8522 56.4961 19.5967Z" fill="white"/>
</svg>
