<svg width="70" height="76" viewBox="0 0 70 76" fill="none" xmlns="http://www.w3.org/2000/svg">
<path d="M68.696 34.6966L38.0883 1.90701C36.3371 0.030995 33.4438 0.030995 31.6927 1.90701L25.3732 8.677L33.4438 17.323C35.3473 16.6705 37.4792 17.0783 38.9258 18.7096C40.4486 20.3409 40.8293 22.6248 40.2202 24.6639L47.9863 32.9837C49.8898 32.3312 52.0216 32.739 53.5444 34.3703C55.6763 36.5726 55.6763 40.2431 53.5444 42.5269C51.4125 44.8108 48.0624 44.8108 45.9306 42.5269C44.3316 40.814 43.951 38.3671 44.7885 36.2463L37.5553 28.4976V48.8891C38.0883 49.1338 38.5451 49.5416 39.002 49.9494C41.1338 52.1517 41.1338 55.8222 39.002 58.106C36.8701 60.3083 33.52 60.3083 31.3881 58.106C29.2562 55.8222 29.2562 52.2333 31.3881 49.9494C31.9211 49.3785 32.5302 48.9706 33.1393 48.7259V28.0897C32.5302 27.845 31.9211 27.3556 31.3881 26.8662C29.7892 25.1533 29.4085 22.7064 30.246 20.5856L22.2515 12.1028L1.31339 34.5334C-0.437797 36.4095 -0.437797 39.509 1.31339 41.385L31.8449 74.093C33.5961 75.969 36.4894 75.969 38.2406 74.093L68.6198 41.5481C70.4472 39.5905 70.4472 36.5726 68.696 34.6966Z" fill="white"/>
</svg>
